:SAMPLES-PER-SECOND 30
:FULLY-SPECIFIED
:DEGREES
400
root  -3.30323 40.8902 1.09966 -19.1072 -87.0482 17.1252
RightUpLeg  7.52772 -3.06655 -3.21725
RightLeg  -1.558 -20.6522 0.52673
RightFoot  -1.94063 -0.372627 4.45437
RightToes  -3.13006e-008 1.75238e-005 3.56266e-009
Spine  -6.528 1.17494 -2.44169
Spine1  14.2654 0.511212 3.12552
HEad  -20.1107 9.07429 12.4952
LeftShoulder1  2.89356 -5.74048 -25.1399
LeftArm  -37.4313 43.8383 -61.9251
LeftForeArm  87.3506 -17.6025 -3.14014
LeftHand  -0.0480322 -7.43008 0.736748
RightShoulder  3.56064 7.1377 27.475
RightArm  -6.16449 -36.3863 42.6152
RightForeArm  62.6256 78.0705 54.1377
RightHand  0.140535 4.74764 1.32427
LeftUpLeg  5.88417 1.09931 0.955924
LeftLeg  -1.61485 10.2629 -1.10197
LeftFoot  -1.65269 0.221985 -2.52302
LeftToes  4.76866e-008 1.46233e-008 1.30548e-009
401
root  -3.25953 40.8916 1.08576 -16.2551 -86.2568 14.5243
RightUpLeg  7.26129 -3.13862 -3.26326
RightLeg  -1.50622 -21.3596 0.59093
RightFoot  -1.95036 -0.371753 4.45269
RightToes  -3.13006e-008 1.75238e-005 3.56266e-009
Spine  -6.11839 0.785572 -2.39656
Spine1  13.4727 0.246633 2.69298
HEad  -19.9095 9.19006 12.3957
LeftShoulder1  2.92242 -5.81176 -25.2113
LeftArm  -38.6834 41.5047 -60.1898
LeftForeArm  87.03 -16.6713 -2.86561
LeftHand  -0.214708 -8.51548 2.07159
RightShoulder  3.53411 7.08741 27.3802
RightArm  -5.59016 -36.4873 42.6995
RightForeArm  62.5469 78.082 54.3177
RightHand  0.0874285 4.62358 0.70087
LeftUpLeg  5.39441 0.979597 0.895664
LeftLeg  -1.5163 9.60188 -1.07286
LeftFoot  -1.53587 0.221589 -2.53094
LeftToes  4.76866e-008 1.46233e-008 1.30548e-009
402
root  -3.26116 40.8939 1.07484 -16.7808 -85.8422 15.0815
RightUpLeg  7.28106 -3.13701 -3.31703
RightLeg  -1.48888 -21.8101 0.495666
RightFoot  -1.96898 -0.373415 4.49073
RightToes  -3.13006e-008 1.75238e-005 3.56266e-009
Spine  -5.95891 0.754019 -2.43181
Spine1  13.1441 0.27421 2.54633
HEad  -19.6589 9.07828 12.0337
LeftShoulder1  3.04086 -6.05622 -25.6704
LeftArm  -39.5716 38.691 -58.1708
LeftForeArm  84.8647 -15.9336 -2.38377
LeftHand  0.0666035 -5.60164 -0.303174
RightShoulder  3.50274 7.0549 27.1791
RightArm  -5.21334 -36.6634 42.8148
RightForeArm  62.6194 78.1255 54.7707
RightHand  -0.0910652 3.6704 -1.40231
LeftUpLeg  5.45956 0.884043 0.769806
LeftLeg  -1.81162 9.30528 -1.12549
LeftFoot  -1.34091 0.215621 -2.44851
LeftToes  4.76866e-008 1.46233e-008 1.30548e-009
403
root  -3.24363 40.8965 1.06022 -14.3007 -85.1385 12.6072
RightUpLeg  7.42086 -3.15672 -3.25098
RightLeg  -1.66362 -22.5276 0.62897
RightFoot  -1.91202 -0.375731 4.53888
RightToes  -3.13006e-008 1.75238e-005 3.56266e-009
Spine  -5.90123 0.61136 -2.18312
Spine1  12.9845 0.212099 2.18664
HEad  -19.4677 9.05334 11.6364
LeftShoulder1  3.11805 -6.21557 -25.9533
LeftArm  -39.8606 35.2553 -56.2149
LeftForeArm  81.7419 -15.4565 -2.0084
LeftHand  -0.158561 -4.30692 2.17809
RightShoulder  3.54894 7.1619 27.2825
RightArm  -5.13821 -36.8295 42.7083
RightForeArm  63.6906 78.2351 55.3549
RightHand  -0.0152808 3.72282 -0.490131
LeftUpLeg  5.2926 0.881182 0.830153
LeftLeg  -1.72403 8.61492 -1.07781
LeftFoot  -1.26898 0.212087 -2.40046
LeftToes  4.76866e-008 1.46233e-008 1.30548e-009
404
root  -3.21823 40.8991 1.04893 -11.7721 -84.2735 10.0971
RightUpLeg  7.62788 -3.21049 -3.18437
RightLeg  -2.01067 -23.3344 0.893872
RightFoot  -1.83028 -0.372342 4.49798
RightToes  -3.13006e-008 1.75238e-005 3.56266e-009
Spine  -5.78612 0.404963 -1.9531
Spine1  12.7613 0.0619606 1.87361
HEad  -18.9915 8.13018 11.9624
LeftShoulder1  3.21793 -6.48262 -26.1032
LeftArm  -39.325 32.1127 -54.6746
LeftForeArm  77.2274 -16.28 -1.93223
LeftHand  -0.24093 -3.3476 3.42957
RightShoulder  3.56918 7.21005 27.3231
RightArm  -5.14851 -36.8236 42.8177
RightForeArm  62.9941 78.1427 54.7223
RightHand  0.0871736 4.79388 0.70481
LeftUpLeg  5.02876 0.895137 0.918474
LeftLeg  -1.52541 7.71701 -1.01308
LeftFoot  -1.22734 0.212468 -2.41
LeftToes  4.76866e-008 1.46233e-008 1.30548e-009
405
root  -3.20463 40.8999 1.03102 -11.7225 -83.6835 9.98595
RightUpLeg  7.74396 -3.33476 -3.2666
RightLeg  -1.98269 -23.7784 0.954639
RightFoot  -1.89785 -0.369469 4.46424
RightToes  -3.13006e-008 1.75238e-005 3.56266e-009
Spine  -5.62851 0.281511 -2.19266
Spine1  12.6079 -0.0932227 2.05086
HEad  -18.9475 7.83827 11.814
LeftShoulder1  3.20422 -6.47341 -25.9908
LeftArm  -38.9411 28.8878 -53.9521
LeftForeArm  72.3531 -17.7295 -1.8992
LeftHand  -0.350613 -3.35336 4.8991
RightShoulder  3.59133 7.29867 27.2519
RightArm  -4.96103 -36.8383 42.7322
RightForeArm  62.9205 78.1896 55.3259
RightHand  -0.00172632 4.09234 -0.291619
LeftUpLeg  4.98383 0.820995 0.850277
LeftLeg  -1.48121 7.22114 -0.972661
LeftFoot  -1.17705 0.214071 -2.43544
LeftToes  4.76866e-008 1.46233e-008 1.30548e-009
406
root  -3.20704 40.9 1.01644 -11.6056 -83.2893 9.74883
RightUpLeg  7.93006 -3.37982 -3.2789
RightLeg  -1.97817 -24.129 0.961777
RightFoot  -1.92435 -0.370111 4.48383
RightToes  -3.13006e-008 1.75238e-005 3.56266e-009
Spine  -5.60263 0.280409 -2.30698
Spine1  12.5588 -0.117973 2.18238
HEad  -18.731 8.07249 11.3934
LeftShoulder1  3.23374 -6.58614 -25.9219
LeftArm  -37.7434 25.9701 -53.5262
LeftForeArm  65.835 -20.0727 -1.98847
LeftHand  -0.44932 -2.72947 6.68301
RightShoulder  3.64701 7.49505 27.1596
RightArm  -4.76961 -36.8709 42.6304
RightForeArm  62.8369 78.187 55.3524
RightHand  0.0222153 3.74987 -0.00245377
LeftUpLeg  5.1475 0.822646 0.845753
LeftLeg  -1.63741 6.81885 -0.986384
LeftFoot  -1.10727 0.222697 -2.56721
LeftToes  4.76866e-008 1.46233e-008 1.30548e-009
407
root  -3.19218 40.8997 0.996469 -11.6577 -82.9203 9.82877
RightUpLeg  7.86429 -3.4186 -3.31371
RightLeg  -1.84707 -24.4353 0.923353
RightFoot  -1.9858 -0.371065 4.5066
RightToes  -3.13006e-008 1.75238e-005 3.56266e-009
Spine  -5.64771 0.284611 -2.54056
Spine1  12.2951 -0.123965 2.33012
HEad  -18.7531 8.27277 11.2445
LeftShoulder1  3.3274 -6.87496 -25.9339
LeftArm  -34.5939 23.5618 -52.713
LeftForeArm  58.1942 -23.0078 -2.32223
LeftHand  -0.479907 -1.58777 8.12787
RightShoulder  3.69479 7.62774 27.1942
RightArm  -4.62652 -36.8485 42.5322
RightForeArm  62.416 78.1255 54.9025
RightHand  0.115148 4.58594 1.04871
LeftUpLeg  5.05452 0.752509 0.785266
LeftLeg  -1.65018 6.55905 -0.964927
LeftFoot  -1.00135 0.218169 -2.49164
LeftToes  4.76866e-008 1.46233e-008 1.30548e-009
408
root  -3.17819 40.899 0.97194 -11.4959 -82.5467 9.59418
RightUpLeg  7.95374 -3.48519 -3.33083
RightLeg  -1.80832 -24.7304 0.965714
RightFoot  -2.03351 -0.371177 4.51426
RightToes  -3.13006e-008 1.75238e-005 3.56266e-009
Spine  -5.56206 0.224503 -2.74865
Spine1  12.1589 -0.204673 2.46793
HEad  -18.6889 8.13071 11.2418
LeftShoulder1  3.31076 -6.84341 -25.8681
LeftArm  -33.5001 21.0281 -52.3878
LeftForeArm  54.1694 -26.1423 -2.84269
LeftHand  -0.542958 -1.71499 9.05411
RightShoulder  3.68426 7.61737 27.1281
RightArm  -4.5774 -36.6332 42.5761
RightForeArm  62.2918 78.0826 54.4893
RightHand  0.043284 4.08752 0.259459
LeftUpLeg  4.99996 0.734388 0.784131
LeftLeg  -1.51674 6.20109 -0.921082
LeftFoot  -0.993768 0.218152 -2.48372
LeftToes  4.76866e-008 1.46233e-008 1.30548e-009
409
root  -3.18397 40.8983 0.955118 -11.7506 -82.4459 9.82675
RightUpLeg  7.91812 -3.51319 -3.34456
RightLeg  -1.62773 -24.7956 0.868713
RightFoot  -2.11063 -0.372563 4.53923
RightToes  -3.13006e-008 1.75238e-005 3.56266e-009
Spine  -5.47539 0.199324 -2.81621
Spine1  11.8742 -0.214386 2.46815
HEad  -18.0003 7.91465 11.1239
LeftShoulder1  3.33499 -6.88151 -25.9889
LeftArm  -32.5549 19.1031 -51.8188
LeftForeArm  51.3735 -29.6847 -3.72653
LeftHand  -0.545869 -1.29286 9.62946
RightShoulder  3.70158 7.66001 27.1576
RightArm  -4.56606 -36.6512 42.5901
RightForeArm  62.671 78.121 54.6825
RightHand  0.0549065 4.46412 0.360798
LeftUpLeg  5.05062 0.737089 0.775961
LeftLeg  -1.5801 6.10826 -0.948275
LeftFoot  -0.975404 0.222667 -2.54395
LeftToes  4.76866e-008 1.46233e-008 1.30548e-009
410
root  -3.18152 40.8975 0.947543 -12.3508 -82.481 10.5093
RightUpLeg  7.77177 -3.56845 -3.43866
RightLeg  -1.50823 -24.6728 0.828263
RightFoot  -2.13691 -0.376504 4.60104
RightToes  -3.13006e-008 1.75238e-005 3.56266e-009
Spine  -5.46628 0.245989 -2.8101
Spine1  11.5385 -0.119276 2.36134
HEad  -17.9228 7.89248 11.0157
LeftShoulder1  3.36249 -6.94559 -26.0581
LeftArm  -31.918 17.259 -51.5277
LeftForeArm  50.4713 -33.074 -4.5236
LeftHand  -0.500298 -0.995938 9.24161
RightShoulder  3.69997 7.64036 27.2034
RightArm  -4.58471 -36.5733 42.7026
RightForeArm  62.4672 78.1104 54.6934
RightHand  0.0375724 3.96792 0.197505
LeftUpLeg  5.03723 0.677748 0.694892
LeftLeg  -1.71988 6.20524 -0.981698
LeftFoot  -0.920742 0.226678 -2.59419
LeftToes  4.76866e-008 1.46233e-008 1.30548e-009
411
root  -3.18423 40.8964 0.945528 -12.3029 -82.4779 10.4491
RightUpLeg  7.82082 -3.57854 -3.44447
RightLeg  -1.57275 -24.682 0.884871
RightFoot  -2.14881 -0.377922 4.61315
RightToes  -3.13006e-008 1.75238e-005 3.56266e-009
Spine  -5.61021 0.207822 -2.85133
Spine1  11.6568 -0.168224 2.40497
HEad  -17.9626 7.59282 10.7656
LeftShoulder1  3.3705 -6.88874 -26.3208
LeftArm  -30.7503 15.3155 -51.1329
LeftForeArm  50.7392 -36.3167 -5.2949
LeftHand  -0.549878 -1.90579 8.93551
RightShoulder  3.68679 7.62054 27.142
RightArm  -4.65844 -36.2971 42.9406
RightForeArm  62.2602 78.0734 54.4051
RightHand  0.0260297 3.75096 0.0751119
LeftUpLeg  5.00716 0.682755 0.704145
LeftLeg  -1.62702 6.17566 -0.964264
LeftFoot  -0.947258 0.227547 -2.59359
LeftToes  4.76866e-008 1.46233e-008 1.30548e-009
412
root  -3.18784 40.8935 0.943281 -12.094 -82.5627 10.2442
RightUpLeg  7.80851 -3.55612 -3.39807
RightLeg  -1.57638 -24.6498 0.898876
RightFoot  -2.17042 -0.376183 4.56615
RightToes  -3.13006e-008 1.75238e-005 3.56266e-009
Spine  -5.69063 0.129078 -2.73255
Spine1  11.6224 -0.199483 2.18824
HEad  -17.9173 8.24821 10.8666
LeftShoulder1  3.38917 -6.92565 -26.3873
LeftArm  -28.9223 14.149 -50.6602
LeftForeArm  50.8023 -40.5933 -6.4329
LeftHand  -0.427357 -1.47011 7.33891
RightShoulder  3.68509 7.58018 27.2513
RightArm  -4.80553 -35.9363 43.0893
RightForeArm  62.8042 78.1022 54.3962
RightHand  0.0849367 3.86597 0.802426
LeftUpLeg  4.95544 0.751997 0.775229
LeftLeg  -1.50476 6.21138 -0.982944
LeftFoot  -1.03574 0.221536 -2.48421
LeftToes  4.76866e-008 1.46233e-008 1.30548e-009
413
root  -3.19607 40.8928 0.942143 -11.8303 -82.6902 9.95174
RightUpLeg  7.90274 -3.51108 -3.3271
RightLeg  -1.72418 -24.5752 0.948323
RightFoot  -2.11475 -0.373477 4.50185
RightToes  -3.13006e-008 1.75238e-005 3.56266e-009
Spine  -5.99933 0.0564519 -2.72672
Spine1  12.0159 -0.293958 2.24104
HEad  -18.0347 8.14446 10.7624
LeftShoulder1  3.45227 -7.07652 -26.526
LeftArm  -26.4875 12.9775 -50.0491
LeftForeArm  51.3959 -45.6997 -7.94325
LeftHand  -0.271797 -1.05806 5.07754
RightShoulder  3.71435 7.65543 27.2902
RightArm  -4.38325 -35.3729 42.647
RightForeArm  64.3185 78.3612 56.4966
RightHand  0.108681 4.30332 1.01885
LeftUpLeg  5.01246 0.79804 0.842078
LeftLeg  -1.49988 6.2709 -0.97469
LeftFoot  -1.07993 0.224114 -2.50685
LeftToes  4.76866e-008 1.46233e-008 1.30548e-009
